<svg width="30" height="30" viewBox="0 0 30 30" fill="none" xmlns="http://www.w3.org/2000/svg">
<path d="M26.6667 24.1667H3.33333C3.11232 24.1667 2.90036 24.0789 2.74408 23.9226C2.5878 23.7663 2.5 23.5543 2.5 23.3333C2.5 23.1123 2.5878 22.9004 2.74408 22.7441C2.90036 22.5878 3.11232 22.5 3.33333 22.5H26.6667C26.8877 22.5 27.0996 22.5878 27.2559 22.7441C27.4122 22.9004 27.5 23.1123 27.5 23.3333C27.5 23.5543 27.4122 23.7663 27.2559 23.9226C27.0996 24.0789 26.8877 24.1667 26.6667 24.1667Z" fill="black"/>
<path d="M26.6667 15.8333H3.33333C3.11232 15.8333 2.90036 15.7455 2.74408 15.5892C2.5878 15.4329 2.5 15.221 2.5 15C2.5 14.7789 2.5878 14.567 2.74408 14.4107C2.90036 14.2544 3.11232 14.1666 3.33333 14.1666H26.6667C26.8877 14.1666 27.0996 14.2544 27.2559 14.4107C27.4122 14.567 27.5 14.7789 27.5 15C27.5 15.221 27.4122 15.4329 27.2559 15.5892C27.0996 15.7455 26.8877 15.8333 26.6667 15.8333Z" fill="black"/>
<path d="M26.6667 7.50004H3.33333C3.11232 7.50004 2.90036 7.41224 2.74408 7.25596C2.5878 7.09968 2.5 6.88772 2.5 6.66671C2.5 6.44569 2.5878 6.23373 2.74408 6.07745C2.90036 5.92117 3.11232 5.83337 3.33333 5.83337H26.6667C26.8877 5.83337 27.0996 5.92117 27.2559 6.07745C27.4122 6.23373 27.5 6.44569 27.5 6.66671C27.5 6.88772 27.4122 7.09968 27.2559 7.25596C27.0996 7.41224 26.8877 7.50004 26.6667 7.50004Z" fill="black"/>
</svg>
