<svg width="30" height="30" viewBox="0 0 30 30" fill="none" xmlns="http://www.w3.org/2000/svg">
<g clip-path="url(#clip0_166_85)">
<path d="M15.0001 28.5666C15.525 28.5545 16.0288 28.3572 16.4222 28.0095C16.8157 27.6618 17.0735 27.1861 17.1501 26.6666H12.7667C12.8455 27.2002 13.1153 27.687 13.5261 28.0365C13.937 28.386 14.4607 28.5744 15.0001 28.5666Z" fill="black"/>
<path d="M27.0916 23.1916C26.288 22.4753 25.5845 21.654 25 20.75C24.3618 19.5021 23.9793 18.1393 23.875 16.7416V12.625C23.8716 12.1249 23.827 11.626 23.7416 11.1333C23.0857 11.0022 22.4553 10.7658 21.875 10.4333C22.0962 11.1457 22.2086 11.8874 22.2083 12.6333V16.75C22.3104 18.455 22.7795 20.1179 23.5833 21.625C24.1586 22.5366 24.8413 23.376 25.6166 24.125H4.27496C5.0503 23.376 5.73296 22.5366 6.30829 21.625C7.11214 20.1179 7.58115 18.455 7.68329 16.75V12.625C7.67891 11.6605 7.8648 10.7047 8.23033 9.81223C8.59586 8.91974 9.13384 8.10812 9.81347 7.42385C10.4931 6.73957 11.301 6.19607 12.191 5.82447C13.081 5.45287 14.0355 5.26048 15 5.25829C16.4114 5.25942 17.7912 5.67684 18.9666 6.45829C18.837 5.98245 18.7643 5.49292 18.75 4.99996V4.47496C17.8798 4.04693 16.9451 3.76537 15.9833 3.64163V2.59163C15.9833 2.29657 15.8661 2.0136 15.6574 1.80497C15.4488 1.59634 15.1658 1.47913 14.8708 1.47913C14.5757 1.47913 14.2928 1.59634 14.0841 1.80497C13.8755 2.0136 13.7583 2.29657 13.7583 2.59163V3.68329C11.6047 3.98709 9.63377 5.05975 8.20931 6.70324C6.78485 8.34673 6.00307 10.4501 6.00829 12.625V16.7416C5.90392 18.1393 5.52144 19.5021 4.88329 20.75C4.30903 21.6519 3.61679 22.4731 2.82496 23.1916C2.73607 23.2697 2.66483 23.3658 2.61597 23.4736C2.56712 23.5814 2.54178 23.6983 2.54163 23.8166V24.95C2.54163 25.171 2.62942 25.3829 2.7857 25.5392C2.94198 25.6955 3.15395 25.7833 3.37496 25.7833H26.5416C26.7626 25.7833 26.9746 25.6955 27.1309 25.5392C27.2872 25.3829 27.375 25.171 27.375 24.95V23.8166C27.3748 23.6983 27.3495 23.5814 27.3006 23.4736C27.2518 23.3658 27.1805 23.2697 27.0916 23.1916Z" fill="black"/>
<path d="M22.9166 14.1667C26.8286 14.1667 29.9999 10.9954 29.9999 7.08333C29.9999 3.17132 26.8286 0 22.9166 0C19.0046 0 15.8333 3.17132 15.8333 7.08333C15.8333 10.9954 19.0046 14.1667 22.9166 14.1667Z" fill="#FF0000"/>
</g>
<defs>
<clipPath id="clip0_166_85">
<rect width="30" height="30" fill="white"/>
</clipPath>
</defs>
</svg>
