<svg width="31" height="30" viewBox="0 0 31 30" fill="none" xmlns="http://www.w3.org/2000/svg">
<path d="M26.75 15C26.75 8.78906 21.7109 3.75 15.5 3.75C9.28906 3.75 4.25 8.78906 4.25 15C4.25 21.2109 9.28906 26.25 15.5 26.25C21.7109 26.25 26.75 21.2109 26.75 15Z" stroke="black" stroke-width="2" stroke-miterlimit="10"/>
<path d="M21.0471 8.8435L14.1799 11.5904C13.7082 11.779 13.2798 12.0615 12.9207 12.4206C12.5615 12.7798 12.279 13.2082 12.0904 13.6798L9.34355 20.547C9.30945 20.6322 9.30111 20.7255 9.31954 20.8154C9.33798 20.9053 9.3824 20.9878 9.44728 21.0527C9.51216 21.1176 9.59465 21.162 9.68454 21.1804C9.77442 21.1988 9.86774 21.1905 9.95293 21.1564L16.8201 18.4095C17.2917 18.2209 17.7201 17.9385 18.0793 17.5793C18.4385 17.2201 18.721 16.7917 18.9096 16.3201L21.6564 9.45288C21.6905 9.3677 21.6989 9.27438 21.6804 9.18449C21.662 9.09461 21.6176 9.01211 21.5527 8.94723C21.4878 8.88235 21.4053 8.83794 21.3155 8.8195C21.2256 8.80106 21.1323 8.80941 21.0471 8.8435ZM15.5 16.4062C15.2219 16.4062 14.95 16.3237 14.7187 16.1692C14.4875 16.0147 14.3072 15.7951 14.2008 15.5381C14.0944 15.2811 14.0665 14.9984 14.1208 14.7256C14.175 14.4528 14.309 14.2022 14.5056 14.0056C14.7023 13.8089 14.9529 13.675 15.2257 13.6207C15.4984 13.5665 15.7812 13.5943 16.0381 13.7007C16.2951 13.8072 16.5147 13.9874 16.6693 14.2187C16.8238 14.4499 16.9062 14.7218 16.9062 15C16.9062 15.3729 16.7581 15.7306 16.4944 15.9943C16.2306 16.258 15.873 16.4062 15.5 16.4062Z" fill="black"/>
</svg>
