<svg width="35" height="36" viewBox="0 0 35 36" fill="none" xmlns="http://www.w3.org/2000/svg">
<path d="M17.5 23.8334C19.1041 23.8334 20.4166 25.1459 20.4166 26.75C20.4166 28.3542 19.1041 29.6667 17.5 29.6667C15.8958 29.6667 14.5833 28.3542 14.5833 26.75C14.5833 25.1459 15.8958 23.8334 17.5 23.8334ZM17.5 15.0834C19.1041 15.0834 20.4166 16.3959 20.4166 18C20.4166 19.6042 19.1041 20.9167 17.5 20.9167C15.8958 20.9167 14.5833 19.6042 14.5833 18C14.5833 16.3959 15.8958 15.0834 17.5 15.0834ZM17.5 6.33337C19.1041 6.33337 20.4166 7.64587 20.4166 9.25004C20.4166 10.8542 19.1041 12.1667 17.5 12.1667C15.8958 12.1667 14.5833 10.8542 14.5833 9.25004C14.5833 7.64587 15.8958 6.33337 17.5 6.33337ZM8.74998 23.8334C10.3541 23.8334 11.6666 25.1459 11.6666 26.75C11.6666 28.3542 10.3541 29.6667 8.74998 29.6667C7.14581 29.6667 5.83331 28.3542 5.83331 26.75C5.83331 25.1459 7.14581 23.8334 8.74998 23.8334ZM8.74998 15.0834C10.3541 15.0834 11.6666 16.3959 11.6666 18C11.6666 19.6042 10.3541 20.9167 8.74998 20.9167C7.14581 20.9167 5.83331 19.6042 5.83331 18C5.83331 16.3959 7.14581 15.0834 8.74998 15.0834ZM8.74998 6.33337C10.3541 6.33337 11.6666 7.64587 11.6666 9.25004C11.6666 10.8542 10.3541 12.1667 8.74998 12.1667C7.14581 12.1667 5.83331 10.8542 5.83331 9.25004C5.83331 7.64587 7.14581 6.33337 8.74998 6.33337ZM26.25 23.8334C27.8541 23.8334 29.1666 25.1459 29.1666 26.75C29.1666 28.3542 27.8541 29.6667 26.25 29.6667C24.6458 29.6667 23.3333 28.3542 23.3333 26.75C23.3333 25.1459 24.6458 23.8334 26.25 23.8334ZM26.25 15.0834C27.8541 15.0834 29.1666 16.3959 29.1666 18C29.1666 19.6042 27.8541 20.9167 26.25 20.9167C24.6458 20.9167 23.3333 19.6042 23.3333 18C23.3333 16.3959 24.6458 15.0834 26.25 15.0834ZM26.25 6.33337C27.8541 6.33337 29.1666 7.64587 29.1666 9.25004C29.1666 10.8542 27.8541 12.1667 26.25 12.1667C24.6458 12.1667 23.3333 10.8542 23.3333 9.25004C23.3333 7.64587 24.6458 6.33337 26.25 6.33337Z" fill="black"/>
</svg>
