<svg width="24" height="24" viewBox="0 0 24 24" fill="none" xmlns="http://www.w3.org/2000/svg">
<path d="M18.25 11C18.4312 11 18.6063 11.0656 18.7429 11.1848C18.8795 11.3039 18.9684 11.4684 18.993 11.648L19 11.75V12.25C19.0002 13.9536 18.3561 15.5942 17.1971 16.8428C16.0381 18.0914 14.4499 18.8556 12.751 18.982L12.75 21.25C12.7499 21.44 12.6778 21.6229 12.548 21.7618C12.4183 21.9006 12.2407 21.9851 12.0511 21.998C11.8615 22.011 11.6741 21.9515 11.5267 21.8316C11.3793 21.7117 11.2829 21.5402 11.257 21.352L11.25 21.25V18.982C9.59152 18.8588 8.03687 18.1278 6.88421 16.929C5.73155 15.7302 5.06201 14.148 5.004 12.486L5 12.25V11.75C5.00006 11.56 5.07224 11.3771 5.20197 11.2382C5.3317 11.0994 5.5093 11.0149 5.69888 11.002C5.88846 10.989 6.07589 11.0485 6.2233 11.1684C6.37071 11.2883 6.4671 11.4598 6.493 11.648L6.5 11.75V12.25C6.49989 13.6051 7.02372 14.9077 7.96194 15.8854C8.90015 16.8632 10.1801 17.4402 11.534 17.496L11.75 17.5H12.25C13.6051 17.5001 14.9077 16.9763 15.8854 16.0381C16.8632 15.0998 17.4402 13.8199 17.496 12.466L17.5 12.25V11.75C17.5 11.5511 17.579 11.3603 17.7197 11.2197C17.8603 11.079 18.0511 11 18.25 11ZM12 2C13.0609 2 14.0783 2.42143 14.8284 3.17157C15.5786 3.92172 16 4.93913 16 6V12C16 13.0609 15.5786 14.0783 14.8284 14.8284C14.0783 15.5786 13.0609 16 12 16C10.9391 16 9.92172 15.5786 9.17157 14.8284C8.42143 14.0783 8 13.0609 8 12V6C8 4.93913 8.42143 3.92172 9.17157 3.17157C9.92172 2.42143 10.9391 2 12 2Z" fill="black"/>
</svg>
