<svg width="29" height="29" viewBox="0 0 29 29" fill="none" xmlns="http://www.w3.org/2000/svg">
<path d="M13.1547 4.06801C14.8997 4.06642 16.6059 4.5824 18.0575 5.55068C19.5091 6.51895 20.641 7.89602 21.3098 9.50768C21.9787 11.1193 22.1545 12.8932 21.8151 14.6048C21.4757 16.3164 20.6362 17.8888 19.4029 19.1233C18.1696 20.3577 16.5979 21.1986 14.8866 21.5396C13.1753 21.8806 11.4013 21.7064 9.78905 21.039C8.17679 20.3716 6.79869 19.241 5.82908 17.7903C4.85948 16.3395 4.34194 14.6338 4.34194 12.8888C4.35252 10.5541 5.28415 8.31781 6.93435 6.66611C8.58455 5.0144 10.82 4.08073 13.1547 4.06801ZM13.1547 2.41663C11.0835 2.41663 9.05882 3.03081 7.33667 4.18151C5.61452 5.33222 4.27227 6.96775 3.47965 8.8813C2.68703 10.7949 2.47965 12.9005 2.88372 14.9319C3.28779 16.9633 4.28518 18.8293 5.74974 20.2938C7.21431 21.7584 9.08028 22.7558 11.1117 23.1598C13.1431 23.5639 15.2487 23.3565 17.1623 22.5639C19.0758 21.7713 20.7114 20.4291 21.8621 18.7069C23.0128 16.9848 23.6269 14.9601 23.6269 12.8888C23.6269 10.1114 22.5236 7.44779 20.5597 5.48387C18.5958 3.51995 15.9321 2.41663 13.1547 2.41663Z" fill="#9A9A9A"/>
<path d="M28.1944 26.8169L22.2575 20.8397L21.1136 21.9756L27.0505 27.9528C27.1251 28.0279 27.2138 28.0876 27.3114 28.1284C27.409 28.1693 27.5138 28.1905 27.6196 28.1909C27.7255 28.1912 27.8304 28.1708 27.9283 28.1306C28.0262 28.0904 28.1153 28.0314 28.1904 27.9568C28.2655 27.8822 28.3252 27.7936 28.366 27.6959C28.4069 27.5983 28.4281 27.4936 28.4285 27.3877C28.4289 27.2819 28.4084 27.177 28.3682 27.079C28.3281 26.9811 28.269 26.8921 28.1944 26.8169Z" fill="#9A9A9A"/>
</svg>
