<svg width="35" height="36" viewBox="0 0 35 36" fill="none" xmlns="http://www.w3.org/2000/svg">
<path d="M19.6875 16.9062H15.3125V12.5312H13.125V16.9062H8.75V19.0938H13.125V23.4688H15.3125V19.0938H19.6875V16.9062Z" fill="black"/>
<path d="M22.9688 28.9375H4.375C3.79502 28.9369 3.23895 28.7063 2.82884 28.2962C2.41873 27.886 2.18808 27.33 2.1875 26.75V9.25C2.18808 8.67002 2.41873 8.11395 2.82884 7.70384C3.23895 7.29373 3.79502 7.06308 4.375 7.0625H22.9688C23.5487 7.06308 24.1048 7.29373 24.5149 7.70384C24.925 8.11395 25.1557 8.67002 25.1562 9.25V13.6873L31.0833 9.45453C31.2468 9.33784 31.4392 9.26841 31.6395 9.25386C31.8399 9.23931 32.0403 9.28021 32.2189 9.37206C32.3976 9.46391 32.5474 9.60317 32.6521 9.77457C32.7568 9.94598 32.8123 10.1429 32.8125 10.3438V25.6562C32.8125 25.8572 32.7572 26.0543 32.6526 26.2258C32.5479 26.3974 32.3981 26.5368 32.2194 26.6288C32.0408 26.7208 31.8402 26.7618 31.6398 26.7473C31.4394 26.7327 31.2468 26.6633 31.0833 26.5466L25.1562 22.3138V26.75C25.1557 27.33 24.925 27.886 24.5149 28.2962C24.1048 28.7063 23.5487 28.9369 22.9688 28.9375ZM4.375 9.25V26.7511L22.9688 26.75V20.1875C22.9687 19.9866 23.0241 19.7895 23.1287 19.6179C23.2333 19.4464 23.3832 19.3069 23.5618 19.215C23.7405 19.123 23.941 19.082 24.1414 19.0965C24.3419 19.111 24.5344 19.1804 24.698 19.2972L30.625 23.53V12.47L24.698 16.7028C24.5344 16.8196 24.3419 16.889 24.1414 16.9035C23.941 16.918 23.7405 16.877 23.5618 16.785C23.3832 16.6931 23.2333 16.5536 23.1287 16.3821C23.0241 16.2105 22.9687 16.0134 22.9688 15.8125V9.25H4.375Z" fill="black"/>
</svg>
