<svg width="25" height="25" viewBox="0 0 25 25" fill="none" xmlns="http://www.w3.org/2000/svg">
<path d="M22.3056 6.94446H2.69444C2.34819 6.94446 2.01611 7.08201 1.77127 7.32685C1.52643 7.57169 1.38889 7.90376 1.38889 8.25001V20.9167C1.38889 21.2629 1.52643 21.595 1.77127 21.8398C2.01611 22.0847 2.34819 22.2222 2.69444 22.2222H22.3056C22.6518 22.2222 22.9839 22.0847 23.2287 21.8398C23.4736 21.595 23.6111 21.2629 23.6111 20.9167V8.25001C23.6111 7.90376 23.4736 7.57169 23.2287 7.32685C22.9839 7.08201 22.6518 6.94446 22.3056 6.94446ZM22.2222 20.8333H2.77777V8.33335H22.2222V20.8333Z" fill="black"/>
<path d="M20.9306 2.08336C20.9306 1.89918 20.8574 1.72255 20.7272 1.59231C20.5969 1.46208 20.4203 1.38892 20.2361 1.38892H4.95833C4.77415 1.38892 4.59752 1.46208 4.46728 1.59231C4.33705 1.72255 4.26389 1.89918 4.26389 2.08336V2.7778H20.9306V2.08336Z" fill="black"/>
<path d="M22.3056 4.86107C22.3056 4.67689 22.2324 4.50026 22.1022 4.37002C21.9719 4.23979 21.7953 4.16663 21.6111 4.16663H3.55556C3.37138 4.16663 3.19475 4.23979 3.06451 4.37002C2.93428 4.50026 2.86111 4.67689 2.86111 4.86107V5.55551H22.3056V4.86107Z" fill="black"/>
<path d="M8.90278 18.6042C9.09524 18.729 9.31924 18.7964 9.54861 18.7986C9.71391 18.7983 9.87724 18.7627 10.0278 18.6945L16.8125 15.6667C17.0222 15.5756 17.2008 15.4251 17.3262 15.2339C17.4516 15.0427 17.5184 14.819 17.5184 14.5903C17.5184 14.3616 17.4516 14.1379 17.3262 13.9467C17.2008 13.7555 17.0222 13.6051 16.8125 13.5139L10.0278 10.4861C9.84824 10.4064 9.65164 10.3727 9.4558 10.3882C9.25996 10.4036 9.07106 10.4677 8.90624 10.5746C8.74142 10.6815 8.60588 10.8278 8.5119 11.0003C8.41792 11.1728 8.36848 11.3661 8.36806 11.5625V17.6181C8.36841 17.8139 8.41747 18.0066 8.51081 18.1787C8.60416 18.3508 8.73886 18.4971 8.90278 18.6042ZM9.34028 11.5625C9.34006 11.5276 9.34891 11.4933 9.36595 11.4629C9.38299 11.4324 9.40765 11.407 9.4375 11.3889C9.47386 11.3789 9.51226 11.3789 9.54861 11.3889C9.57604 11.3827 9.60452 11.3827 9.63195 11.3889L16.4167 14.4098C16.4549 14.4254 16.4875 14.4525 16.5098 14.4873C16.5322 14.522 16.5433 14.5629 16.5417 14.6042C16.5429 14.6446 16.5315 14.6843 16.5091 14.7179C16.4867 14.7515 16.4544 14.7773 16.4167 14.7917L9.63195 17.8195C9.60239 17.8365 9.56886 17.8455 9.53472 17.8455C9.50059 17.8455 9.46706 17.8365 9.4375 17.8195C9.40852 17.8005 9.38455 17.7748 9.36763 17.7446C9.3507 17.7143 9.34132 17.6805 9.34028 17.6459V11.5625Z" fill="black"/>
</svg>
